<svg xmlns="http://www.w3.org/2000/svg" viewBox="0 0 108 72">
  <!-- Обобщённая nRF52-плата (NRF52_UNKNOWN) -->
  <!-- плата -->
  <rect x="8" y="10" width="92" height="52" rx="5" fill="#2c3a33" stroke="#48594f" stroke-width="2"/>
  <!-- экранированный ВЧ-модуль -->
  <rect x="18" y="20" width="34" height="32" rx="2" fill="#b7bcc1" stroke="#7d838a" stroke-width="1.5"/>
  <line x1="18" y1="27" x2="52" y2="27" stroke="#9297a0" stroke-width="1"/>
  <!-- чип-антенна (золото) + меандр -->
  <rect x="80" y="16" width="16" height="7" rx="1.5" fill="#c99a2e"/>
  <path d="M62 22 h6 v6 h6 v-6 h6 v6 h6" fill="none" stroke="#c99a2e" stroke-width="1.6"/>
  <!-- SoC -->
  <rect x="62" y="36" width="18" height="18" rx="2" fill="#20232a" stroke="#3d4550" stroke-width="1.2"/>
  <!-- контакты снизу -->
  <g fill="#c99a2e"><rect x="20" y="62" width="3" height="6"/><rect x="27" y="62" width="3" height="6"/><rect x="34" y="62" width="3" height="6"/><rect x="41" y="62" width="3" height="6"/><rect x="66" y="62" width="3" height="6"/><rect x="73" y="62" width="3" height="6"/><rect x="80" y="62" width="3" height="6"/></g>
</svg>
